# xmcd CD database file
#
# Track frame offsets:
#	150
#	13608
#	25758
#	37175
#	49851
#	65939
#	80996
#	92991
#	106248
#	120909
#	134293
#	144142
#	159630
#	169966
#	180976
#	193408
#	207315
#	223472
#	237772
#	249029
#
# Disc length: 3491 seconds
#
# Revision: 1
# Processed by: cddbd v1.4b41PL3 Copyright (c) Steve Scherf et al.
# Submitted via: CDex 1.40Beta4
#
DISCID=230da114
DTITLE=Various Artist - Country Woman CD1
DYEAR=1998
DGENRE=Country
TTITLE0=Anderson, Lynn - Rose Garden
TTITLE1=Spears, Billie Jo - Misty Blue
TTITLE2=Cline, Patsy - Just out of reach
TTITLE3=Jackson, Wanda - Crazy
TTITLE4=Murray, Anne - Both sides now
TTITLE5=Riley, Jeannie C. - Harper Valley P.T.A.
TTITLE6=Davis, Skeeter /End of the world
TTITLE7=West, Dottie - D.I.V.O.R.C.E.
TTITLE8=Lynn, Loretta - Coalminer's daughter
TTITLE9=Tucker, Tanya - Jamestown ferry
TTITLE10=Mandrell, Barbara - Release me
TTITLE11=Montgomery, Melba - No charge
TTITLE12=Howard, Jan - I wish I could fall in love again
TTITLE13=Fargo, Donna - Wishful thinking
TTITLE14=Posey, Sandy - Single girl
TTITLE15=Fairchild, Barbara - Crazy love
TTITLE16=Lee, Brenda - Comin' on strong
TTITLE17=Wells, Kitty - Makin' believe
TTITLE18=Parton, Stella - Danger of stranger
TTITLE19=Gale, Crystal - Talkin'in your sleep
EXTD=YEAR: 1998 ID3G:   2
EXTT0=
EXTT1=
EXTT2=
EXTT3=
EXTT4=
EXTT5=
EXTT6=
EXTT7=
EXTT8=
EXTT9=
EXTT10=
EXTT11=
EXTT12=
EXTT13=
EXTT14=
EXTT15=
EXTT16=
EXTT17=
EXTT18=
EXTT19=
PLAYORDER=
